<svg width="2442" height="210" viewBox="0 0 2442 210" fill="none" xmlns="http://www.w3.org/2000/svg">
<path d="M165.056 3.95999V48.888H110.912V207H54.464V48.888H0.896V3.95999H165.056ZM367.669 3.95999V207H311.221V125.496H242.389V207H185.941V3.95999H242.389V80.28H311.221V3.95999H367.669ZM456.42 49.176V82.296H521.22V125.208H456.42V161.784H529.86V207H399.972V3.95999H529.86V49.176H456.42ZM1722.35 70.776C1719.09 65.4 1714.58 61.272 1708.82 58.392C1703.25 55.512 1696.63 54.072 1688.95 54.072C1674.74 54.072 1663.51 58.68 1655.25 67.896C1647.19 77.112 1643.15 89.496 1643.15 105.048C1643.15 122.52 1647.47 135.864 1656.11 145.08C1664.95 154.104 1677.71 158.616 1694.42 158.616C1714.19 158.616 1728.31 149.688 1736.75 131.832H1680.02V91.224H1785.43V145.944C1781.01 156.696 1774.48 166.776 1765.84 176.184C1757.39 185.592 1746.64 193.368 1733.59 199.512C1720.53 205.464 1705.65 208.44 1688.95 208.44C1668.59 208.44 1650.55 204.12 1634.8 195.48C1619.25 186.648 1607.15 174.456 1598.51 158.904C1590.07 143.16 1585.84 125.208 1585.84 105.048C1585.84 85.08 1590.07 67.32 1598.51 51.768C1607.15 36.024 1619.25 23.832 1634.8 15.192C1650.35 6.36 1668.31 1.944 1688.66 1.944C1714.19 1.944 1735.31 8.088 1752.02 20.376C1768.72 32.664 1779.09 49.464 1783.12 70.776H1722.35ZM1939.17 173.88H1867.17L1856.23 207H1796.9L1870.91 3.95999H1936L2009.73 207H1950.11L1939.17 173.88ZM1925.06 130.68L1903.17 65.016L1881.57 130.68H1925.06ZM2216.19 207H2159.74L2084.58 93.528V207H2028.13V3.95999H2084.58L2159.74 118.872V3.95999H2216.19V207ZM2377.95 70.776C2374.68 65.4 2370.17 61.272 2364.41 58.392C2358.84 55.512 2352.22 54.072 2344.54 54.072C2330.33 54.072 2319.1 58.68 2310.84 67.896C2302.78 77.112 2298.75 89.496 2298.75 105.048C2298.75 122.52 2303.07 135.864 2311.71 145.08C2320.54 154.104 2333.31 158.616 2350.01 158.616C2369.79 158.616 2383.9 149.688 2392.35 131.832H2335.61V91.224H2441.02V145.944C2436.6 156.696 2430.07 166.776 2421.43 176.184C2412.99 185.592 2402.23 193.368 2389.18 199.512C2376.12 205.464 2361.24 208.44 2344.54 208.44C2324.19 208.44 2306.14 204.12 2290.39 195.48C2274.84 186.648 2262.75 174.456 2254.11 158.904C2245.66 143.16 2241.43 125.208 2241.43 105.048C2241.43 85.08 2245.66 67.32 2254.11 51.768C2262.75 36.024 2274.84 23.832 2290.39 15.192C2305.95 6.36 2323.9 1.944 2344.25 1.944C2369.79 1.944 2390.91 8.088 2407.61 20.376C2424.31 32.664 2434.68 49.464 2438.71 70.776H2377.95Z" fill="white"/>
<path d="M898.862 3.95999L849.038 207H779.63L751.694 82.584L723.182 207H653.774L604.526 3.95999H665.582L689.198 142.776L721.166 3.95999H783.086L814.19 141.624L837.806 3.95999H898.862ZM1020.16 209.016C1001.15 209.016 983.68 204.6 967.744 195.768C951.808 186.744 939.136 174.36 929.728 158.616C920.512 142.68 915.904 124.728 915.904 104.76C915.904 84.792 920.512 66.936 929.728 51.192C939.136 35.256 951.808 22.872 967.744 14.04C983.68 5.20799 1001.15 0.791994 1020.16 0.791994C1039.36 0.791994 1056.83 5.20799 1072.58 14.04C1088.51 22.872 1101.09 35.256 1110.3 51.192C1119.52 66.936 1124.13 84.792 1124.13 104.76C1124.13 124.728 1119.52 142.68 1110.3 158.616C1101.09 174.36 1088.51 186.744 1072.58 195.768C1056.64 204.6 1039.17 209.016 1020.16 209.016ZM1020.16 156.6C1034.56 156.6 1045.89 151.896 1054.14 142.488C1062.59 133.08 1066.82 120.504 1066.82 104.76C1066.82 88.632 1062.59 75.96 1054.14 66.744C1045.89 57.336 1034.56 52.632 1020.16 52.632C1005.57 52.632 994.144 57.336 985.888 66.744C977.632 75.96 973.504 88.632 973.504 104.76C973.504 120.696 977.632 133.368 985.888 142.776C994.144 151.992 1005.57 156.6 1020.16 156.6ZM1246.85 209.016C1227.84 209.016 1210.37 204.6 1194.43 195.768C1178.5 186.744 1165.82 174.36 1156.42 158.616C1147.2 142.68 1142.59 124.728 1142.59 104.76C1142.59 84.792 1147.2 66.936 1156.42 51.192C1165.82 35.256 1178.5 22.872 1194.43 14.04C1210.37 5.20799 1227.84 0.791994 1246.85 0.791994C1266.05 0.791994 1283.52 5.20799 1299.26 14.04C1315.2 22.872 1327.78 35.256 1336.99 51.192C1346.21 66.936 1350.82 84.792 1350.82 104.76C1350.82 124.728 1346.21 142.68 1336.99 158.616C1327.78 174.36 1315.2 186.744 1299.26 195.768C1283.33 204.6 1265.86 209.016 1246.85 209.016ZM1246.85 156.6C1261.25 156.6 1272.58 151.896 1280.83 142.488C1289.28 133.08 1293.5 120.504 1293.5 104.76C1293.5 88.632 1289.28 75.96 1280.83 66.744C1272.58 57.336 1261.25 52.632 1246.85 52.632C1232.26 52.632 1220.83 57.336 1212.58 66.744C1204.32 75.96 1200.19 88.632 1200.19 104.76C1200.19 120.696 1204.32 133.368 1212.58 142.776C1220.83 151.992 1232.26 156.6 1246.85 156.6ZM1513.85 3.95999V48.888H1432.64V84.6H1492.54V127.512H1432.64V207H1376.19V3.95999H1513.85Z" fill="#ffac11"/>
</svg>
